Coordinates
version=1
nRows=25
nColumns=23
inDegrees=yes

Units are S.I. units (second, meters, Newtons, ...)
If the header above contains a line with 'inDegrees', this indicates whether rotational values are in degrees (yes) or radians (no).

endheader
time	pelvis_tilt	pelvis_list	pelvis_rotation	pelvis_tx	pelvis_ty	pelvis_tz	hip_flexion_r	hip_adduction_r	hip_rotation_r	knee_angle_r	knee_angle_r_beta	ankle_angle_r	subtalar_angle_r	mtp_angle_r	hip_flexion_l	hip_adduction_l	hip_rotation_l	knee_angle_l	knee_angle_l_beta	ankle_angle_l	subtalar_angle_l	mtp_angle_l
      7.50000000	      0.49612773	     -4.11014262	     -7.30237741	      2.17791944	      1.04281519	      1.01531050	     27.52962878	      7.90273158	     -9.90277738	     30.68873807	      0.53561952	      2.95737125	     16.09138290	      0.00000000	     -9.84912490	     -0.11277940	    -10.69893937	     77.08736506	      1.34542833	    -14.77420291	     -2.86937379	      0.00000000
      7.50666667	      0.95779462	     -4.66972330	     -7.53799049	      2.17684600	      1.03753084	      1.01532437	     26.63153016	      8.53355376	     -9.86408481	     31.75134523	      0.55416552	      3.58250785	     15.24910981	      0.00000000	     -8.80259610	     -1.10216932	    -11.04768793	     80.99711634	      1.41366636	    -14.78032430	     -5.22793355	      0.00000000
      7.51333333	      1.56812663	     -5.33227967	     -7.81114791	      2.17569144	      1.03198433	      1.01542473	     25.63850228	      9.19841345	     -9.92669243	     33.27088857	      0.58068655	      4.77769009	     14.54390778	      0.00000000	     -7.92746800	     -2.29870067	    -11.47091508	     84.82313028	      1.48044291	    -14.50037144	     -7.00716245	      0.00000000
      7.52000000	      1.83764935	     -6.00167608	     -8.07215556	      2.17428349	      1.02591272	      1.01556142	     25.02533306	      9.98321763	     -9.72642999	     35.00385073	      0.61093245	      6.43911587	     13.49468604	      0.00000000	     -6.58140766	     -3.59327999	    -11.72859105	     88.63775577	      1.54702068	    -14.29135512	     -8.90993162	      0.00000000
      7.52666667	      1.78297912	     -6.51330108	     -8.46826757	      2.17250548	      1.01930928	      1.01586251	     24.84681412	     10.76459108	     -9.14501104	     37.02458766	      0.64620096	      8.11574028	     11.81282434	      0.00000000	     -4.78094347	     -4.81579078	    -11.97500544	     92.39188646	      1.61254262	    -14.01521195	    -10.48066686	      0.00000000
      7.53333333	      2.16298498	     -7.27154049	     -8.75886544	      2.17076650	      1.01333677	      1.01614542	     24.09813198	     11.60947262	     -8.95720719	     39.08750055	      0.68220558	     10.28086815	     10.88824292	      0.00000000	     -3.49750519	     -6.35443440	    -12.09755054	     95.91821946	      1.67408874	    -13.53448772	    -11.64823555	      0.00000000
      7.54000000	      1.54394007	     -7.78692855	     -9.20859860	      2.16844076	      1.00646026	      1.01674520	     24.47490563	     12.58119353	     -8.17140928	     41.17767071	      0.71868593	     12.34665657	      9.19207476	      0.00000000	     -0.88843824	     -7.82607005	    -12.02452593	     99.49943614	      1.73659276	    -12.95390969	    -12.39040987	      0.00000000
      7.54666667	      1.34902188	     -8.46265262	     -9.58662370	      2.16613475	      1.00058555	      1.01733494	     24.22766144	     13.56584187	     -7.62767813	     43.09593883	      0.75216603	     14.55488122	      8.20465884	      0.00000000	      1.24694266	     -9.49837565	    -11.81663401	    102.75788242	      1.79346338	    -12.40389748	    -12.87276356	      0.00000000
      7.55333333	      0.59771687	     -8.98260586	     -9.99869896	      2.16339251	      0.99464795	      1.01807288	     24.52977827	     14.59701959	     -6.77362348	     44.83928354	      0.78259313	     16.53314236	      6.68749136	      0.00000000	      4.21230835	    -11.07638656	    -11.28358654	    105.89775521	      1.84826450	    -11.65910044	    -12.89820696	      0.00000000
      7.56000000	     -0.05026531	     -9.50616274	    -10.34323676	      2.16059971	      0.98951804	      1.01877900	     24.56406500	     15.53205230	     -6.07505466	     46.33726003	      0.80873775	     18.51095875	      5.91857842	      0.00000000	      7.17172729	    -12.64374355	    -10.51081674	    108.72916127	      1.89768186	    -10.91900661	    -12.65431852	      0.00000000
      7.56666667	     -0.75596052	     -9.90346001	    -10.62935888	      2.15773530	      0.98507695	      1.01944360	     24.53713608	     16.31653106	     -5.33915844	     47.58522345	      0.83051882	     20.32705548	      5.13821593	      0.00000000	     10.34388668	    -14.06604744	     -9.52049645	    111.22771880	      1.94128991	    -10.19590495	    -12.21762454	      0.00000000
      7.57333333	     -1.37702478	    -10.20120722	    -10.83140692	      2.15491450	      0.98154027	      1.01992965	     24.26639714	     16.91050530	     -4.62815362	     48.54846320	      0.84733053	     22.00301252	      4.62306753	      0.00000000	     13.55626204	    -15.24704749	     -8.32634648	    113.35267178	      1.97837734	     -9.46603866	    -11.63841896	      0.00000000
      7.58000000	     -1.78880100	    -10.45741498	    -10.91535684	      2.15231158	      0.97910574	      1.02020315	     23.58038740	     17.30784162	     -4.03772246	     49.18377009	      0.85841873	     23.58294374	      4.61994574	      0.00000000	     16.60286569	    -16.23917362	     -7.00436594	    115.05022009	      2.00800515	     -8.76041952	    -10.99218407	      0.00000000
      7.58666667	     -2.00700907	    -10.52009935	    -10.86594955	      2.14993739	      0.97768941	      1.02019578	     22.55416178	     17.36497638	     -3.50019622	     49.55502113	      0.86489828	     25.01890335	      4.71058651	      0.00000000	     19.50243871	    -16.82229965	     -5.64871825	    116.30237598	      2.02985939	     -8.05589074	    -10.41988694	      0.00000000
      7.59333333	     -2.16281020	    -10.43681730	    -10.72984216	      2.14785643	      0.97714229	      1.01996922	     21.31579070	     17.15471139	     -3.06323522	     49.64125880	      0.86640341	     26.19983460	      5.03583155	      0.00000000	     22.34750702	    -17.08521166	     -4.32814453	    117.14180971	      2.04451027	     -7.32173485	     -9.84507255	      0.00000000
      7.60000000	     -2.01838117	    -10.24176028	    -10.49322026	      2.14619154	      0.97776422	      1.01954724	     19.57415158	     16.72265494	     -2.62338456	     49.38853719	      0.86199259	     27.17242079	      5.37782782	      0.00000000	     24.75623844	    -17.04456213	     -3.16380068	    117.50169865	      2.05079152	     -6.67397738	     -9.59414949	      0.00000000
      7.60666667	     -1.86475097	     -9.94666498	    -10.16822461	      2.14486694	      0.97907364	      1.01904034	     17.68747239	     16.12711992	     -2.29403661	     48.84822567	      0.85256237	     27.89243186	      5.77019838	      0.00000000	     27.08209704	    -16.79435087	     -2.09955427	    117.48921424	      2.05057362	     -5.98346435	     -9.43552518	      0.00000000
      7.61333333	     -1.72381483	     -9.57573329	     -9.75727395	      2.14392790	      0.98103509	      1.01844051	     15.67260513	     15.40791441	     -2.10144810	     47.99079334	      0.83759735	     28.27397614	      6.33241744	      0.00000000	     29.30159862	    -16.35059352	     -1.13804528	    117.10826934	      2.04392488	     -5.33157051	     -9.34604563	      0.00000000
      7.62000000	     -1.56009763	     -9.12603374	     -9.26649060	      2.14336555	      0.98361231	      1.01774480	     13.51981476	     14.60843105	     -1.95171585	     46.87829064	      0.81818052	     28.50184783	      6.87774648	      0.00000000	     31.35138003	    -15.69452646	     -0.30714557	    116.37294908	      2.03109112	     -4.69929912	     -9.49332877	      0.00000000
      7.62666667	     -1.47886287	     -8.60420538	     -8.74055128	      2.14316046	      0.98658329	      1.01711008	     11.35988788	     13.78069795	     -1.82598518	     45.53711070	      0.79477251	     28.56010640	      7.29524634	      0.00000000	     33.31292717	    -14.91648261	      0.37929989	    115.31670846	      2.01265625	     -4.08900223	     -9.82201375	      0.00000000
      7.63333333	     -1.25608102	     -8.01745331	     -8.12496551	      2.14350737	      0.99023178	      1.01643546	      8.92641954	     12.86352131	     -1.83505098	     43.94385558	      0.76696497	     28.45549290	      7.89523294	      0.00000000	     34.88639673	    -13.96580972	      0.90668051	    113.89599926	      1.98786019	     -3.67502520	    -10.42054179	      0.00000000
      7.64000000	     -1.36016586	     -7.35787831	     -7.48977749	      2.14411259	      0.99380371	      1.01583294	      6.82104794	     12.00536801	     -1.81321541	     42.23364111	      0.73711609	     28.12649797	      8.17977795	      0.00000000	     36.67786139	    -12.91582355	      1.36192426	    112.25851089	      1.95928063	     -3.10140568	    -11.01000775	      0.00000000
      7.64666667	     -1.33479921	     -6.64720609	     -6.82341162	      2.14519767	      0.99796972	      1.01532729	      4.47601352	     11.11827147	     -1.85265739	     40.29147821	      0.70321896	     27.48804726	      8.42382674	      0.00000000	     38.06748427	    -11.76732222	      1.65221856	    110.28415346	      1.92482159	     -2.76746974	    -11.86599049	      0.00000000
      7.65333333	     -1.29841116	     -5.87559617	     -6.21370073	      2.14669582	      1.00250038	      1.01499366	      2.05098981	     10.24531172	     -1.79590731	     38.16826929	      0.66616197	     26.36837345	      8.42433697	      0.00000000	     39.18936286	    -10.64816231	      1.70919309	    108.02967907	      1.88547359	     -2.38280481	    -12.80005657	      0.00000000
      7.66000000	     -1.73783801	     -5.09455860	     -5.47595878	      2.14838982	      1.00651436	      1.01456128	      0.21182528	      9.43176999	     -2.06562435	     36.08475376	      0.62979776	     24.72216265	      8.36187204	      0.00000000	     40.75301713	     -9.39266695	      1.90718825	    105.64899208	      1.84392276	     -1.92420896	    -13.40795525	      0.00000000
